<svg width="512" height="512" viewBox="0 0 512 512" fill="none" xmlns="http://www.w3.org/2000/svg">
<path fill-rule="evenodd" clip-rule="evenodd" d="M447.03 379.855C445.924 376.693 446.49 373.198 448.441 370.476C471.572 338.218 485 299.773 485 258.5C485 144.453 382.473 52 256 52C129.527 52 27 144.453 27 258.5C27 372.547 129.527 465 256 465C301.69 465 344.255 452.934 379.989 432.143C382.441 430.716 385.371 430.332 388.087 431.15L455.208 451.362C463.034 453.719 470.229 446.201 467.531 438.486L447.03 379.855Z" fill="#4E46DC" style="fill:#4E46DC;fill:color(display-p3 0.3059 0.2745 0.8627);fill-opacity:1;"/>
<path d="M181.584 309.795C181.061 315.247 178.617 319.775 174.251 323.378C170.114 326.79 165.32 328.236 159.867 327.713C154.415 327.191 149.878 324.851 146.255 320.695C142.862 316.348 141.427 311.449 141.949 305.997C142.472 300.545 144.811 296.007 148.968 292.384C153.334 288.782 158.243 287.242 163.696 287.764C169.148 288.287 173.571 290.721 176.964 295.067C180.566 299.433 182.106 304.343 181.584 309.795ZM192.737 193.408C192.215 198.861 189.77 203.388 185.404 206.991C181.268 210.404 176.473 211.849 171.021 211.326C165.569 210.804 161.031 208.464 157.408 204.308C154.016 199.962 152.58 195.062 153.103 189.61C153.625 184.158 155.965 179.62 160.121 175.998C164.488 172.395 169.397 170.855 174.849 171.377C180.302 171.9 184.724 174.334 188.117 178.68C191.72 183.047 193.26 187.956 192.737 193.408ZM383.402 252.313C383.158 259.274 382.37 266.394 381.037 273.673C379.914 280.973 378.497 288.032 376.785 294.852C373.543 306.604 368.548 317.871 361.801 328.653C355.053 339.434 345.846 348.287 334.177 355.211C322.049 362.514 308.6 367.045 293.828 368.804C279.077 370.353 264.542 370.759 250.221 370.021C245.358 369.979 240.42 369.611 235.407 368.919C230.584 368.457 225.916 367.481 221.403 365.99C217.688 364.999 214.968 363.574 213.241 361.716C212.253 360.986 211.494 360.067 210.966 358.958C210.437 357.849 210.013 356.751 209.694 355.662C209.166 354.553 208.742 353.454 208.423 352.366C208.334 351.087 208.14 349.799 207.841 348.5C207.732 347.432 207.613 346.468 207.483 345.609C207.584 344.561 207.674 343.617 207.755 342.778L224.967 163.165C225.108 161.697 225.239 160.334 225.359 159.076C225.48 157.817 225.81 156.579 226.35 155.361C227.051 152.466 227.911 150.114 228.931 148.307C230.011 145.871 231.335 144.199 232.903 143.291C234.262 142.363 235.591 141.75 236.889 141.451C238.208 140.943 239.411 140.529 240.5 140.21C241.798 139.911 243.057 140.032 244.275 140.572C245.722 140.922 247.325 140.758 249.083 140.08L301.494 146.373C315.295 148.118 327.356 152.554 337.678 159.681C348.02 166.598 356.628 175.041 363.503 185.012C370.378 194.983 375.465 205.946 378.763 217.902C382.082 229.648 383.628 241.118 383.402 252.313ZM319.166 306.473C323.753 300.563 327.383 293.61 330.054 285.612C332.725 277.614 334.357 269.411 334.952 261.003C335.566 252.385 335.206 243.991 333.873 235.821C332.56 227.442 330.317 219.926 327.145 213.273C324.651 208.378 321.238 204.241 316.906 200.863C312.574 197.485 307.647 194.791 302.126 192.781C296.625 190.56 290.654 188.824 284.213 187.572C277.982 186.34 271.826 185.433 265.745 184.85C265.372 190.951 264.914 196.833 264.371 202.495C263.828 208.157 263.256 214.134 262.653 220.425C261.72 227.954 260.911 235.284 260.228 242.414C259.545 249.544 258.882 256.464 258.239 263.175L252.089 327.345C258.61 327.758 264.827 328.037 270.738 328.18C276.88 328.133 282.768 327.428 288.401 326.063C294.244 324.718 299.633 322.589 304.568 319.676C309.733 316.573 314.599 312.172 319.166 306.473Z" fill="white" style="fill:white;fill-opacity:1;"/>
</svg>
